# This file uses centimeters as units for non-parametric coordinates.

mtllib test1Model.mtl
g default
v -8.000000 0.000000 8.000000
v 8.000000 0.000000 8.000000
v -8.000000 1.000000 8.000000
v 8.000000 1.000000 8.000000
v -8.000000 1.000000 -8.000000
v 8.000000 1.000000 -8.000000
v -8.000000 0.000000 -8.000000
v 8.000000 0.000000 -8.000000
vt 0.250000 0.904297
vt 0.156250 0.904297
vt 0.156250 0.906250
vt 0.125000 0.906250
vt 0.250000 0.906250
vt 0.156250 0.937500
vt 0.187500 0.906250
vt 0.125000 0.937500
vt 0.218750 0.906250
vt 0.125000 0.904297
vt 0.187500 0.904297
vt 0.218750 0.904297
vt 0.125000 0.873047
vt 0.156250 0.873047
vn 0.000000 0.000000 1.000000
vn 0.000000 0.000000 1.000000
vn 0.000000 0.000000 1.000000
vn 0.000000 0.000000 1.000000
vn 0.000000 1.000000 0.000000
vn 0.000000 1.000000 0.000000
vn 0.000000 1.000000 0.000000
vn 0.000000 1.000000 0.000000
vn 0.000000 0.000000 -1.000000
vn 0.000000 0.000000 -1.000000
vn 0.000000 0.000000 -1.000000
vn 0.000000 0.000000 -1.000000
vn 0.000000 -1.000000 0.000000
vn 0.000000 -1.000000 0.000000
vn 0.000000 -1.000000 0.000000
vn 0.000000 -1.000000 0.000000
vn 1.000000 0.000000 0.000000
vn 1.000000 0.000000 0.000000
vn 1.000000 0.000000 0.000000
vn 1.000000 0.000000 0.000000
vn -1.000000 0.000000 0.000000
vn -1.000000 0.000000 0.000000
vn -1.000000 0.000000 0.000000
vn -1.000000 0.000000 0.000000
s 1
g pCube6
usemtl lambert4SG
f 1/10/1 2/2/2 3/4/3
f 3/4/3 2/2/2 4/3/4
s 2
f 3/4/5 4/3/6 5/8/7
f 5/8/7 4/3/6 6/6/8
s 3
f 5/9/9 6/7/10 7/12/11
f 7/12/11 6/7/10 8/11/12
s 4
f 7/13/13 8/14/14 1/10/15
f 1/10/15 8/14/14 2/2/16
s 5
f 2/2/17 8/11/18 4/3/19
f 4/3/19 8/11/18 6/7/20
s 6
f 7/12/21 1/1/22 5/9/23
f 5/9/23 1/1/22 3/5/24
g default
v -2.500000 1.000000 2.500000
v 2.500000 1.000000 2.500000
v -2.500000 15.000000 2.500000
v 2.500000 15.000000 2.500000
v -2.500000 15.000000 -2.500000
v 2.500000 15.000000 -2.500000
v -2.500000 1.000000 -2.500000
v 2.500000 1.000000 -2.500000
vt 0.000000 0.962891
vt 0.009766 0.962891
vt 0.009766 0.990234
vt 0.000000 0.990234
vt 0.039063 0.990234
vt 0.039063 0.962891
vt 0.009766 1.000000
vt 0.000000 1.000000
vt 0.029297 0.990234
vt 0.019531 0.990234
vt 0.019531 0.962891
vt 0.029297 0.962891
vt 0.000000 0.953125
vt 0.009766 0.953125
vn 0.000000 0.000000 1.000000
vn 0.000000 0.000000 1.000000
vn 0.000000 0.000000 1.000000
vn 0.000000 0.000000 1.000000
vn 0.000000 1.000000 0.000000
vn 0.000000 1.000000 0.000000
vn 0.000000 1.000000 0.000000
vn 0.000000 1.000000 0.000000
vn 0.000000 0.000000 -1.000000
vn 0.000000 0.000000 -1.000000
vn 0.000000 0.000000 -1.000000
vn 0.000000 0.000000 -1.000000
vn 0.000000 -1.000000 0.000000
vn 0.000000 -1.000000 0.000000
vn 0.000000 -1.000000 0.000000
vn 0.000000 -1.000000 0.000000
vn 1.000000 0.000000 0.000000
vn 1.000000 0.000000 0.000000
vn 1.000000 0.000000 0.000000
vn 1.000000 0.000000 0.000000
vn -1.000000 0.000000 0.000000
vn -1.000000 0.000000 0.000000
vn -1.000000 0.000000 0.000000
vn -1.000000 0.000000 0.000000
s 1
g pCube8
usemtl lambert4SG
f 9/15/25 10/16/26 11/18/27
f 11/18/27 10/16/26 12/17/28
s 2
f 11/18/29 12/17/30 13/22/31
f 13/22/31 12/17/30 14/21/32
s 3
f 13/23/33 14/24/34 15/26/35
f 15/26/35 14/24/34 16/25/36
s 4
f 15/27/37 16/28/38 9/15/39
f 9/15/39 16/28/38 10/16/40
s 5
f 10/16/41 16/25/42 12/17/43
f 12/17/43 16/25/42 14/24/44
s 6
f 15/26/45 9/20/46 13/23/47
f 13/23/47 9/20/46 11/19/48
g default
v -8.000000 15.000000 8.000000
v 8.000000 15.000000 8.000000
v -8.000000 16.000000 8.000000
v 8.000000 16.000000 8.000000
v -8.000000 16.000000 -8.000000
v 8.000000 16.000000 -8.000000
v -8.000000 15.000000 -8.000000
v 8.000000 15.000000 -8.000000
vt 0.000000 0.904297
vt 0.031250 0.904297
vt 0.031250 0.906250
vt 0.000000 0.906250
vt 0.125000 0.906250
vt 0.125000 0.904297
vt 0.031250 0.937500
vt 0.000000 0.937500
vt 0.093750 0.906250
vt 0.062500 0.906250
vt 0.062500 0.904297
vt 0.093750 0.904297
vt 0.000000 0.873047
vt 0.031250 0.873047
vn 0.000000 0.000000 1.000000
vn 0.000000 0.000000 1.000000
vn 0.000000 0.000000 1.000000
vn 0.000000 0.000000 1.000000
vn 0.000000 1.000000 0.000000
vn 0.000000 1.000000 0.000000
vn 0.000000 1.000000 0.000000
vn 0.000000 1.000000 0.000000
vn 0.000000 0.000000 -1.000000
vn 0.000000 0.000000 -1.000000
vn 0.000000 0.000000 -1.000000
vn 0.000000 0.000000 -1.000000
vn 0.000000 -1.000000 0.000000
vn 0.000000 -1.000000 0.000000
vn 0.000000 -1.000000 0.000000
vn 0.000000 -1.000000 0.000000
vn 1.000000 0.000000 0.000000
vn 1.000000 0.000000 0.000000
vn 1.000000 0.000000 0.000000
vn 1.000000 0.000000 0.000000
vn -1.000000 0.000000 0.000000
vn -1.000000 0.000000 0.000000
vn -1.000000 0.000000 0.000000
vn -1.000000 0.000000 0.000000
s 1
g pCube7
usemtl lambert4SG
f 17/29/49 18/30/50 19/32/51
f 19/32/51 18/30/50 20/31/52
s 2
f 19/32/53 20/31/54 21/36/55
f 21/36/55 20/31/54 22/35/56
s 3
f 21/37/57 22/38/58 23/40/59
f 23/40/59 22/38/58 24/39/60
s 4
f 23/41/61 24/42/62 17/29/63
f 17/29/63 24/42/62 18/30/64
s 5
f 18/30/65 24/39/66 20/31/67
f 20/31/67 24/39/66 22/38/68
s 6
f 23/40/69 17/34/70 21/37/71
f 21/37/71 17/34/70 19/33/72
